<svg width="55" height="55" viewBox="0 0 55 55" fill="none" xmlns="http://www.w3.org/2000/svg">
<path d="M-5.81497e-05 53.7107C0.0731661 53.1292 0.155005 52.5477 0.218179 51.9648C0.783872 46.7228 2.72216 42.0436 6.00863 37.9316C6.41065 37.4291 6.4767 37.0759 6.19098 36.48C4.2412 32.4183 2.33881 28.3335 0.422058 24.2545C0.347398 24.0965 0.279917 23.9343 0.18372 23.7161C3.12274 22.2286 6.03304 20.7555 9.00652 19.2508C10.8084 23.1173 12.5945 26.9494 14.3806 30.78C15.5809 30.2589 16.7424 29.7621 17.8939 29.2452C17.9944 29.2007 18.0777 29.0385 18.0992 28.9179C18.1351 28.7269 18.115 28.5259 18.115 28.3292C18.115 19.1403 18.115 9.94991 18.115 0.760987C18.115 0.00146484 18.1165 0.00146484 18.8616 0.00146484C22.4769 0.00146484 26.0922 0.00146484 29.706 0.00146484C29.8998 0.00146484 30.0937 0.00146484 30.3478 0.00146484C30.3478 3.18313 30.3478 6.32603 30.3478 9.52635C32.187 9.52635 33.9674 9.52635 35.8396 9.52635C35.8396 9.80489 35.8396 10.0274 35.8396 10.2514C35.8396 16.2529 35.8453 22.253 35.8296 28.2545C35.8281 28.701 35.9645 28.8891 36.3866 29.0499C37.7678 29.5783 39.1246 30.1698 40.5647 30.7671C42.3795 26.9853 44.2173 23.1575 46.091 19.2551C49.0271 20.7397 51.936 22.2085 54.9009 23.7074C54.8162 23.9085 54.7501 24.0865 54.6683 24.2545C52.6568 28.4254 50.6496 32.5992 48.6223 36.7629C48.4399 37.1376 48.4614 37.376 48.7314 37.7048C51.9432 41.6345 53.8944 46.1284 54.6022 51.1493C54.7817 52.4214 54.7846 53.7179 54.8693 55.0029C54.3682 55.0029 53.8671 55.0029 53.366 55.0029C53.2914 52.4228 53.0057 49.8772 52.1743 47.3675C51.2756 47.692 50.4184 47.9863 49.5756 48.3223C49.4335 48.3783 49.3071 48.5922 49.2612 48.7573C48.9726 49.827 48.6926 50.8995 48.4457 51.9777C48.3724 52.2993 48.2504 52.4142 47.9173 52.4228C45.9331 52.4803 43.9488 52.552 41.966 52.6439C41.6057 52.6612 41.4233 52.5276 41.2453 52.2376C40.3278 50.7444 39.3615 49.2785 38.4742 47.7681C38.1584 47.2311 37.765 47.0617 37.1878 47.0157C35.9961 46.9195 34.8073 46.7702 33.6199 46.6137C33.4189 46.5864 33.1791 46.4558 33.0542 46.2978C31.4763 44.305 29.9199 42.2963 28.3463 40.3006C28.1712 40.0781 28.1726 39.9273 28.3234 39.6933C29.3614 38.0852 30.3736 36.4599 31.4217 34.8576C31.5409 34.6753 31.8252 34.5145 32.0449 34.4972C34.9667 34.2575 37.8913 34.0464 40.8131 33.8239C41.2065 33.7937 41.597 33.7363 42.0622 33.6817C32.3851 26.7082 18.3505 27.9042 10.1178 35.8684C10.8931 36.2274 11.6268 36.6595 12.4165 36.9093C13.4775 37.2439 13.858 37.8153 13.7632 38.9582C13.6369 40.4988 13.7359 40.4959 15.2076 41.0472C15.5062 41.1592 15.8566 41.3286 16.0203 41.577C17.0798 43.1923 18.0978 44.8348 19.1158 46.4759C19.1976 46.6065 19.2565 46.8205 19.2077 46.9511C18.6247 48.5032 18.0203 50.0481 17.4115 51.6202C17.2091 51.5657 17.0382 51.524 16.8717 51.4738C15.7274 51.1263 14.5773 50.7947 13.443 50.4185C13.0956 50.3036 12.886 50.3711 12.6505 50.6281C12.0575 51.2742 11.4215 51.8815 10.8414 52.5391C10.55 52.8693 10.2398 52.967 9.81486 52.9627C7.31088 52.9397 4.80546 52.9411 2.30004 52.934C2.10622 52.934 1.91239 52.934 1.608 52.934C1.608 53.6533 1.608 54.3267 1.608 55C1.07103 55 0.534048 55 -0.00292969 55C-5.81497e-05 54.5707 -5.81497e-05 54.14 -5.81497e-05 53.7107ZM51.6273 45.9202C51.6273 45.8039 51.6374 45.7666 51.6259 45.7364C50.0537 41.6445 47.5885 38.18 44.2704 35.3257C44.1068 35.185 43.8139 35.1189 43.5899 35.1362C40.0421 35.396 36.4958 35.6703 32.9508 35.966C32.7154 35.9861 32.4196 36.167 32.2861 36.3638C31.5854 37.4018 30.9436 38.4786 30.2487 39.5196C30.0377 39.8354 30.0793 40.0321 30.3018 40.3107C31.439 41.7378 32.5718 43.1707 33.6673 44.6309C33.9688 45.0329 34.3163 45.1851 34.7829 45.2325C36.0449 45.3603 37.307 45.4938 38.5633 45.6647C38.7844 45.6948 39.0543 45.8657 39.1749 46.0538C40.1742 47.6015 41.1505 49.1651 42.1182 50.7329C42.279 50.9928 42.4528 51.0933 42.7643 51.0775C44.0508 51.0143 45.3386 50.9598 46.6251 50.9497C47.0429 50.9468 47.1793 50.7717 47.2611 50.4142C47.4693 49.5082 47.7105 48.6109 47.9173 47.7049C47.9963 47.3632 48.147 47.165 48.5031 47.0459C49.5526 46.6998 50.5835 46.3021 51.6273 45.9202ZM1.76881 51.3187C1.97843 51.3546 2.06458 51.3805 2.14929 51.3819C4.56425 51.4063 6.97921 51.435 9.39418 51.435C9.60811 51.435 9.87085 51.2929 10.0302 51.1349C10.7553 50.4185 11.4703 49.6891 12.1494 48.9282C12.4337 48.6094 12.6893 48.5606 13.0784 48.6898C14.1925 49.0602 15.3196 49.3934 16.4869 49.7552C16.8128 48.9152 17.1459 48.127 17.4144 47.3172C17.4905 47.0889 17.4503 46.7544 17.3325 46.5419C16.9607 45.87 16.4653 45.2626 16.1322 44.5735C15.4057 43.0745 14.3505 42.0307 12.6577 41.7407C12.3246 41.6833 12.204 41.478 12.2155 41.1305C12.2399 40.4155 12.2083 39.6976 12.2284 38.9826C12.2384 38.6466 12.1135 38.4643 11.8077 38.3322C10.9721 37.9718 10.1336 37.6086 9.32382 37.1951C8.96058 37.0084 8.76531 37.0859 8.50974 37.3616C5.80619 40.2863 3.85211 43.6474 2.70062 47.4579C2.32014 48.7114 2.08037 50.0093 1.76881 51.3187ZM19.6714 1.58225C19.6714 10.6276 19.6714 19.6055 19.6714 28.6336C19.8868 28.5862 20.0591 28.5489 20.2299 28.5115C21.1359 28.3163 22.0376 28.0865 22.9521 27.9415C23.4389 27.864 23.5839 27.6874 23.581 27.1921C23.5623 21.571 23.5695 15.95 23.571 10.329C23.571 10.0834 23.5954 9.83792 23.6097 9.53641C25.3628 9.53641 27.0714 9.53641 28.7885 9.53641C28.7885 6.85582 28.7885 4.23411 28.7885 1.58368C25.7404 1.58225 22.7267 1.58225 19.6714 1.58225ZM25.1417 27.6443C28.253 27.4232 31.2652 27.6386 34.2488 28.3837C34.2488 22.5847 34.2488 16.8674 34.2488 11.156C31.1891 11.156 28.1755 11.156 25.1417 11.156C25.1417 16.6492 25.1417 22.1023 25.1417 27.6443ZM47.3545 35.8914C49.1908 32.0837 51.0387 28.2517 52.8922 24.4081C50.8018 23.3528 48.8175 22.3521 46.7974 21.3327C45.1333 24.8044 43.5066 28.1985 41.9287 31.4907C43.7679 32.9839 45.5397 34.4197 47.3545 35.8914ZM8.2872 21.337C6.21826 22.3851 4.21249 23.4016 2.19523 24.4225C4.03445 28.3292 5.82773 32.1354 7.58654 35.8727C9.40997 34.3967 11.1817 32.961 13.0109 31.4807C11.4703 28.1727 9.88952 24.7785 8.2872 21.337Z" fill="#ED1C24"/>
<path d="M43.1217 15.6499C41.9932 14.5616 40.9465 13.5537 39.9099 12.5544C40.3406 12.1251 40.6795 11.7891 41.0944 11.3756C42.0722 12.3678 43.0672 13.3771 44.0837 14.4109C44.177 14.0706 44.2029 13.5939 44.3393 13.5609C44.7542 13.4561 45.2122 13.5236 45.6889 13.5236C45.6889 14.7626 45.6889 15.9687 45.6889 17.2135C44.4771 17.2135 43.2725 17.2135 42.0248 17.2135C42.0248 16.7311 42.0248 16.2573 42.0248 15.7303C42.3435 15.7059 42.668 15.6829 43.1217 15.6499Z" fill="#ED1C24"/>
<path d="M10.3661 13.4862C10.3862 13.8351 10.402 14.0993 10.4207 14.4309C11.4387 13.3426 12.4164 12.2974 13.4057 11.2378C13.9125 11.7489 14.247 12.0863 14.6175 12.4596C13.5808 13.4776 12.5442 14.4956 11.5076 15.5135C11.5363 15.5638 11.5636 15.6126 11.5923 15.6628C11.9182 15.6801 12.2427 15.6973 12.6031 15.716C12.6031 16.2099 12.6031 16.6837 12.6031 17.2034C11.3884 17.2034 10.1651 17.2034 8.85141 17.2034C8.85141 16.6535 8.85141 16.0878 8.85141 15.5221C8.85141 15.021 8.87869 14.5185 8.84423 14.0189C8.81408 13.5767 8.99929 13.4503 9.40418 13.4805C9.70282 13.5049 10.0058 13.4862 10.3661 13.4862Z" fill="#ED1C24"/>
<path d="M23.9888 39.488C24.6306 40.8577 25.2494 42.1772 25.8955 43.5569C24.5818 43.7824 23.3241 44.0078 22.062 44.203C21.9385 44.2217 21.7275 44.0867 21.6543 43.9647C20.23 41.5885 18.8143 39.2066 17.4173 36.8131C17.3326 36.6681 17.3513 36.3925 17.4302 36.2331C17.9356 35.208 18.4611 34.19 19.0124 33.1893C19.0986 33.0342 19.3599 32.8734 19.5308 32.8834C21.4733 33.0084 23.4145 33.1591 25.3542 33.3285C25.4849 33.34 25.6859 33.5453 25.706 33.6817C25.9257 35.1477 26.1238 36.6179 26.2961 38.0895C26.3119 38.2302 26.1468 38.4643 26.0046 38.5375C25.36 38.8706 24.6923 39.1606 23.9888 39.488ZM21.9357 38.7328C22.7555 38.3566 23.5121 37.9991 24.2788 37.6631C24.5574 37.5411 24.6981 37.409 24.6335 37.0615C24.5172 36.4298 24.4526 35.7894 24.3808 35.1505C24.3492 34.8662 24.2114 34.7686 23.9285 34.7471C22.8775 34.6724 21.8251 34.6021 20.7813 34.4685C20.2529 34.3996 19.9443 34.5346 19.7519 35.0357C19.6126 35.4003 19.4173 35.7478 19.212 36.0823C19.0297 36.381 19.0584 36.6193 19.2393 36.9165C20.2386 38.5677 21.2149 40.2317 22.1998 41.8915C22.6521 42.6538 22.6521 42.6539 23.6069 42.3121C23.0584 41.1362 22.51 39.9632 21.9357 38.7328Z" fill="#ED1C24"/>
<path d="M23.2823 4.75241C22.7984 4.75241 22.3404 4.75241 21.8494 4.75241C21.8494 4.2542 21.8494 3.77896 21.8494 3.26065C22.2988 3.26065 22.7525 3.26065 23.2823 3.26065C23.2823 3.72297 23.2823 4.21544 23.2823 4.75241Z" fill="#ED1C24"/>
<path d="M21.8337 7.9542C21.8337 7.44738 21.8337 6.9865 21.8337 6.48541C22.319 6.48541 22.79 6.48541 23.3097 6.48541C23.3097 6.95922 23.3097 7.44451 23.3097 7.9542C22.8058 7.9542 22.3248 7.9542 21.8337 7.9542Z" fill="#ED1C24"/>
<path d="M25.0786 3.23914C25.5682 3.23914 26.0104 3.23914 26.5058 3.23914C26.5058 3.74165 26.5058 4.22551 26.5058 4.74382C26.0305 4.74382 25.5754 4.74382 25.0786 4.74382C25.0786 4.25853 25.0786 3.77181 25.0786 3.23914Z" fill="#ED1C24"/>
<path d="M25.0627 7.99869C25.0627 7.45741 25.0627 6.9836 25.0627 6.47678C25.5409 6.47678 25.9946 6.47678 26.5445 6.47678C26.5445 6.91325 26.5588 7.34829 26.5301 7.78189C26.5244 7.86086 26.3449 7.98146 26.2386 7.98864C25.8682 8.01305 25.4949 7.99869 25.0627 7.99869Z" fill="#ED1C24"/>
<path d="M27.3213 14.3319C27.3213 13.7978 27.3213 13.324 27.3213 12.8171C27.7951 12.8171 28.2502 12.8171 28.7987 12.8171C28.7987 13.245 28.8145 13.6657 28.7858 14.0849C28.78 14.1739 28.6149 14.3146 28.5158 14.3218C28.1282 14.3491 27.7391 14.3319 27.3213 14.3319Z" fill="#ED1C24"/>
<path d="M30.5603 12.8085C31.0528 12.8085 31.495 12.8085 32.0176 12.8085C32.0176 13.2364 32.0377 13.6427 32.0047 14.0433C31.9961 14.1467 31.8266 14.3089 31.719 14.3175C31.3485 14.352 30.9738 14.3304 30.5603 14.3304C30.5603 13.7992 30.5603 13.301 30.5603 12.8085Z" fill="#ED1C24"/>
<path d="M27.311 17.5537C27.311 17.0139 27.311 16.553 27.311 16.0089C27.7217 16.0089 28.1251 15.9931 28.5257 16.0203C28.6219 16.0275 28.7784 16.1697 28.787 16.2615C28.8186 16.5975 28.8243 16.9407 28.787 17.2766C28.7755 17.3786 28.5989 17.5322 28.4869 17.5423C28.1194 17.5753 27.7461 17.5537 27.311 17.5537Z" fill="#ED1C24"/>
<path d="M30.5444 16.0247C31.0354 16.0247 31.4762 16.0247 32.0146 16.0247C32.0146 16.4597 32.0304 16.8789 32.0017 17.2953C31.996 17.3858 31.8366 17.5337 31.739 17.5408C31.3527 17.5695 30.9636 17.5523 30.543 17.5523C30.5444 17.024 30.5444 16.5516 30.5444 16.0247Z" fill="#ED1C24"/>
<path d="M27.3169 20.6651C27.3169 20.1051 27.3169 19.6471 27.3169 19.1546C27.7964 19.1546 28.2501 19.1546 28.7986 19.1546C28.7986 19.5796 28.8144 19.9989 28.7857 20.4152C28.7799 20.5043 28.6134 20.6464 28.5129 20.6536C28.1281 20.6823 27.739 20.6651 27.3169 20.6651Z" fill="#ED1C24"/>
<path d="M30.5415 20.6651C30.5415 20.131 30.5415 19.66 30.5415 19.1546C31.0153 19.1546 31.469 19.1546 32.0146 19.1546C32.0146 19.5796 32.0304 19.9989 32.0017 20.4152C31.9959 20.5043 31.8308 20.6464 31.7318 20.6536C31.347 20.6823 30.9593 20.6651 30.5415 20.6651Z" fill="#ED1C24"/>
<path d="M27.3198 23.8122C27.3198 23.2394 27.3198 22.7699 27.3198 22.1841C27.8295 22.2487 28.4239 22.1611 28.7283 22.4181C28.9394 22.5961 28.925 23.4519 28.7039 23.6356C28.411 23.8812 27.818 23.7677 27.3198 23.8122Z" fill="#ED1C24"/>
<path d="M30.5415 22.2674C31.0254 22.2674 31.4776 22.2674 32.0189 22.2674C32.0189 22.6852 32.039 23.0872 32.006 23.4849C31.9974 23.5897 31.828 23.7548 31.7217 23.7649C31.3398 23.7993 30.9521 23.7778 30.5429 23.7778C30.5415 23.2379 30.5415 22.767 30.5415 22.2674Z" fill="#ED1C24"/>
<path d="M46.5261 26.6551C47.3574 27.0772 48.1327 27.4706 48.9453 27.8827C48.7099 28.3493 48.4945 28.7743 48.2562 29.2481C47.4349 28.8332 46.661 28.4412 45.8354 28.0248C46.0666 27.5668 46.2805 27.1433 46.5261 26.6551Z" fill="#ED1C24"/>
<path d="M47.9776 23.785C48.7874 24.1927 49.5598 24.5833 50.3839 24.9996C50.16 25.4576 49.9518 25.8826 49.7091 26.3751C48.8979 25.9659 48.114 25.5696 47.2812 25.149C47.5167 24.6881 47.7335 24.2645 47.9776 23.785Z" fill="#ED1C24"/>
<path d="M45.1219 29.4319C45.9532 29.8525 46.7127 30.2373 47.5354 30.6551C47.3085 31.1117 47.0932 31.5467 46.8534 32.0277C46.0422 31.6171 45.2698 31.228 44.437 30.8073C44.6696 30.3436 44.885 29.9071 45.1219 29.4319Z" fill="#ED1C24"/>
<path d="M5.42571 26.411C5.19168 25.9487 4.97632 25.5223 4.73511 25.0427C5.53914 24.6364 6.3245 24.2387 7.15438 23.818C7.38841 24.2803 7.60234 24.7053 7.84498 25.1863C7.03521 25.5983 6.24841 25.9961 5.42571 26.411Z" fill="#ED1C24"/>
<path d="M6.87727 29.2897C6.63894 28.8116 6.42788 28.388 6.19385 27.9171C7.0108 27.5036 7.78181 27.1131 8.6002 26.6996C8.83853 27.1619 9.05534 27.5826 9.30085 28.0593C8.48821 28.4728 7.71576 28.8647 6.87727 29.2897Z" fill="#ED1C24"/>
<path d="M8.28136 32.0722C8.03871 31.5841 7.82909 31.162 7.59937 30.6982C8.41345 30.2861 9.18302 29.8971 10.0043 29.4807C10.2412 29.943 10.4551 30.3622 10.7006 30.8389C9.88367 31.2553 9.11554 31.6473 8.28136 32.0722Z" fill="#ED1C24"/>
</svg>
