<svg width="57" height="55" viewBox="0 0 57 55" fill="none" xmlns="http://www.w3.org/2000/svg">
<g clip-path="url(#clip0_3_411)">
<path d="M0 40.4932C0.373779 39.5691 0.638662 38.5787 1.14783 37.7355C2.00134 36.3198 3.32428 35.434 4.92535 34.9837C5.07839 34.941 5.22997 34.891 5.39037 34.8409C3.27425 31.7639 4.47652 28.6485 6.28067 27.199C8.31291 25.5671 11.2531 25.5803 13.2324 27.2358C15.0174 28.728 16.177 31.7786 14.1624 34.7085C15.0748 35.2 16.0725 35.5973 16.9084 36.2154C18.5683 37.4412 19.3983 39.1821 19.466 41.232C19.5263 43.0832 19.488 44.9388 19.4807 46.793C19.4777 47.417 19.0951 47.8275 18.5683 47.8187C18.0577 47.8099 17.706 47.4317 17.7015 46.8166C17.6883 45.1095 17.7045 43.4025 17.6927 41.6955C17.6765 39.1997 16.2785 37.2764 14.0255 36.6936C13.097 36.4538 12.1596 36.4126 11.209 36.701C10.1877 37.01 9.16053 36.932 8.11866 36.673C5.05632 35.9137 2.31625 37.8032 1.89391 40.5227C1.68936 41.8338 1.78943 43.1921 1.76294 44.5297C1.74823 45.2641 1.74676 45.9984 1.76589 46.7327C1.77766 47.1992 1.65405 47.5774 1.19197 47.7495C0.759331 47.9114 0.403211 47.7657 0.128027 47.4023C0.100067 47.3655 0.0441472 47.3478 0 47.3228C0 45.0448 0 42.7697 0 40.4932ZM9.71385 35.1132C11.774 35.1176 13.4413 33.4665 13.434 31.4313C13.4266 29.4255 11.7682 27.77 9.74916 27.7509C7.739 27.7318 6.05993 29.3858 6.04816 31.396C6.03639 33.4679 7.65512 35.1087 9.71385 35.1132Z" fill="#ED1C24"/>
<path d="M23.8439 8.84413C21.6896 5.70527 23.0022 2.60761 24.7813 1.20079C26.8857 -0.463558 29.8112 -0.398809 31.8508 1.4024C33.6108 2.95785 34.5599 5.95102 32.5321 8.85591C32.8676 8.96333 33.2017 9.04427 33.5151 9.17377C36.1448 10.2465 37.7076 12.1684 37.8886 15.0262C38.0108 16.9643 37.9416 18.9141 37.9342 20.8595C37.9328 21.4643 37.5502 21.8514 37.0469 21.8499C36.5524 21.8484 36.1787 21.4378 36.1478 20.858C36.1404 20.73 36.1463 20.6005 36.1463 20.4725C36.1463 18.895 36.0786 17.313 36.161 15.7384C36.2949 13.197 34.3421 10.2259 30.3836 10.5394C29.8995 10.5776 29.4271 10.8381 28.9459 10.8499C28.1865 10.8705 27.3948 10.8837 26.6679 10.6998C22.9934 9.77417 20.1724 12.5849 20.243 15.4927C20.2842 17.1615 20.2504 18.8317 20.2504 20.5019C20.2504 20.6491 20.2592 20.7962 20.2445 20.9419C20.1944 21.4746 19.7898 21.8661 19.3174 21.8469C18.848 21.8278 18.4801 21.4732 18.4698 20.936C18.4462 19.5793 18.4389 18.2195 18.4624 16.8627C18.4771 15.9489 18.4389 15.0115 18.6257 14.1271C19.1923 11.4503 20.8684 9.75504 23.4863 8.98393C23.5746 8.95745 23.6615 8.92949 23.7468 8.89858C23.7836 8.88681 23.813 8.86327 23.8439 8.84413ZM28.2057 1.79825C26.1573 1.79531 24.5415 3.39049 24.5209 5.43597C24.5003 7.49617 26.1293 9.14139 28.1939 9.14434C30.2571 9.14728 31.8949 7.50353 31.8802 5.44628C31.867 3.40226 30.2541 1.80119 28.2057 1.79825Z" fill="#ED1C24"/>
<path d="M50.9972 34.8498C53.1192 35.356 54.6893 36.5185 55.6797 38.4242C56.1506 39.3322 56.3964 40.3019 56.3964 41.3306C56.3964 43.1288 56.3978 44.9271 56.3964 46.7254C56.3949 47.4096 56.0608 47.8173 55.5134 47.8158C54.9675 47.8128 54.6393 47.4067 54.6393 46.718C54.6378 45.011 54.6319 43.3054 54.6408 41.5984C54.6555 38.7745 52.4761 36.1109 48.7442 36.5597C47.7509 36.6789 46.7841 36.9939 45.7657 36.8408C45.0829 36.7378 44.4031 36.5421 43.7202 36.5362C41.0067 36.5126 38.8891 38.4581 38.7493 41.1555C38.658 42.9302 38.7154 44.7137 38.7081 46.4928C38.7037 47.3876 38.4226 47.8128 37.8266 47.8187C37.2277 47.8261 36.9172 47.3802 36.9157 46.5134C36.9157 44.9168 36.9142 43.3201 36.9157 41.725C36.9201 38.3668 38.789 35.8828 42.0176 34.9381C42.1192 34.9086 42.2178 34.8689 42.3208 34.8321C40.2253 31.7963 41.3569 28.7148 43.2067 27.2035C45.2389 25.5435 48.1747 25.5759 50.1981 27.2653C52.017 28.7839 53.0574 31.8743 50.9972 34.8498ZM46.656 35.1147C48.7 35.1191 50.3423 33.5048 50.3511 31.4813C50.36 29.4182 48.728 27.7612 46.6796 27.7524C44.6503 27.7435 42.9536 29.4373 42.9639 31.4578C42.9742 33.4753 44.6238 35.1088 46.656 35.1147Z" fill="#ED1C24"/>
<path d="M28.0364 55C24.0029 54.9514 20.0399 53.989 16.3492 51.9686C15.7429 51.636 15.5619 51.09 15.8827 50.6132C16.1609 50.1997 16.6406 50.1144 17.1954 50.4116C18.7979 51.271 20.4681 51.9583 22.2311 52.413C28.0276 53.9051 33.5916 53.293 38.9202 50.5603C39.0997 50.469 39.2748 50.369 39.4617 50.2939C39.9267 50.1085 40.3049 50.2615 40.5404 50.6736C40.7788 51.0886 40.6964 51.4888 40.3241 51.8052C40.2137 51.8994 40.0798 51.9656 39.9503 52.0348C36.2787 53.9979 32.354 54.9632 28.0364 55Z" fill="#ED1C24"/>
<path d="M5.12097 24.8534C4.4676 24.8431 4.08352 24.2765 4.33663 23.5481C4.81047 22.1854 5.25047 20.7977 5.87442 19.5027C8.29368 14.4817 12.0241 10.7145 16.9774 8.15692C17.1393 8.07304 17.3012 7.97297 17.4763 7.92882C17.9398 7.81257 18.3195 7.9509 18.5285 8.39678C18.7242 8.81324 18.6241 9.18849 18.2665 9.47397C18.1253 9.58729 17.9516 9.65939 17.7897 9.74474C11.8887 12.8409 7.98171 17.5823 6.06278 23.9631C5.86559 24.6209 5.61837 24.8607 5.12097 24.8534Z" fill="#ED1C24"/>
<path d="M52.1511 23.9351C52.1069 24.4443 51.8862 24.7533 51.4285 24.8416C50.9385 24.9358 50.5706 24.6871 50.3867 24.1617C50.0556 23.2126 49.7774 22.2413 49.386 21.3186C47.2007 16.1784 43.5939 12.345 38.6509 9.76386C37.8474 9.34446 37.6075 8.93242 37.8768 8.385C38.152 7.82727 38.6435 7.74633 39.4352 8.16426C45.7527 11.49 49.9673 16.5537 52.0201 23.4024C52.076 23.5937 52.1158 23.7909 52.1511 23.9351Z" fill="#ED1C24"/>
<path d="M3.48758 44.9183C3.48758 44.2943 3.47287 43.6704 3.492 43.0479C3.50966 42.4475 3.88049 42.0649 4.39113 42.0781C4.89441 42.0914 5.26377 42.4916 5.26966 43.0817C5.28143 44.3296 5.28143 45.576 5.26966 46.8239C5.26377 47.417 4.89441 47.8099 4.38524 47.8173C3.87019 47.8261 3.50966 47.4494 3.492 46.8445C3.47287 46.2029 3.48758 45.5599 3.48758 44.9183Z" fill="#ED1C24"/>
<path d="M23.7249 18.9627C23.7249 19.5866 23.7381 20.2091 23.7219 20.833C23.7043 21.4688 23.329 21.8705 22.8081 21.8484C22.3122 21.8278 21.9457 21.4202 21.9399 20.833C21.9281 19.5866 21.9266 18.3402 21.9413 17.0938C21.9487 16.4904 22.3078 16.124 22.836 16.1225C23.3658 16.1211 23.7028 16.4713 23.7219 17.0952C23.7396 17.7162 23.7249 18.3402 23.7249 18.9627Z" fill="#ED1C24"/>
<path d="M34.4613 18.97C34.4613 19.594 34.4716 20.2165 34.4584 20.8404C34.4451 21.4246 34.0773 21.8337 33.5813 21.8484C33.0781 21.8631 32.6881 21.4761 32.6793 20.8801C32.6616 19.6161 32.6616 18.3505 32.6793 17.0864C32.6881 16.4698 33.0413 16.1167 33.571 16.1225C34.0993 16.1284 34.4451 16.4948 34.4599 17.1011C34.4731 17.7236 34.4613 18.3476 34.4613 18.97Z" fill="#ED1C24"/>
<path d="M52.9178 45.0095C52.9178 45.6143 52.9325 46.2206 52.9133 46.8254C52.8957 47.439 52.5469 47.8143 52.0348 47.8187C51.5095 47.8231 51.1342 47.414 51.1298 46.7871C51.1195 45.5584 51.1195 44.3296 51.1298 43.0994C51.1357 42.4813 51.5271 42.0634 52.0451 42.0752C52.5513 42.0869 52.8972 42.4695 52.9133 43.0832C52.931 43.7248 52.9178 44.3664 52.9178 45.0095Z" fill="#ED1C24"/>
<path d="M15.9725 44.9697C15.9725 45.6114 15.9828 46.253 15.9695 46.8946C15.9592 47.442 15.5825 47.8187 15.0866 47.8143C14.5936 47.8099 14.2213 47.4287 14.2169 46.8784C14.2066 45.5952 14.2081 44.312 14.2169 43.0287C14.2213 42.4784 14.5877 42.0899 15.0763 42.0781C15.5855 42.0649 15.9637 42.4651 15.9725 43.0464C15.9798 43.6865 15.9725 44.3281 15.9725 44.9697Z" fill="#ED1C24"/>
<path d="M42.1858 44.9904C42.1858 45.6143 42.1931 46.2368 42.1843 46.8607C42.1755 47.4405 41.7943 47.832 41.2793 47.8143C40.7848 47.7981 40.4346 47.4185 40.4317 46.8593C40.4243 45.5761 40.4228 44.2928 40.4331 43.0096C40.4376 42.4666 40.8202 42.0781 41.3087 42.0781C41.7988 42.0781 42.174 42.4666 42.1843 43.0111C42.1946 43.6704 42.1858 44.3311 42.1858 44.9904Z" fill="#ED1C24"/>
</g>
<defs>
<clipPath id="clip0_3_411">
<rect width="56.3965" height="55" fill="white"/>
</clipPath>
</defs>
</svg>
